<svg width="25" height="26" viewBox="0 0 25 26" fill="none" xmlns="http://www.w3.org/2000/svg">
<path d="M25 13H8.65957M19.383 7.78261C19.383 8.3847 20.0621 9.41252 20.6371 10.1763C21.1357 10.8489 21.7375 11.4345 22.4192 11.9106C23.1617 12.4209 24.183 13 24.9898 13C24.183 13 23.1617 13.5802 22.4192 14.0894C21.7375 14.5655 21.1357 15.1511 20.6371 15.8237C20.0621 16.5875 19.383 17.6153 19.383 18.2174M15.2979 7.78261V3.08696H14.9619C10.4433 3.08705 5.94829 2.42106 1.61583 1.10957L1.25532 1H1V25H1.25532L1.61583 24.8904C5.94828 23.5789 10.4433 22.9129 14.9619 22.913H15.2979V18.2174" stroke="black" stroke-width="1.2"/>
</svg>
