<svg width="24" height="17" viewBox="0 0 24 17" fill="none" xmlns="http://www.w3.org/2000/svg">
<path d="M6.106 3.57365C6.86163 2.76763 7.77454 2.12516 8.78832 1.68596C9.80209 1.24675 10.8952 1.02014 12 1.02014C13.1048 1.02014 14.1979 1.24675 15.2117 1.68596C16.2255 2.12516 17.1384 2.76763 17.894 3.57365L20.5 6.52065C21.5 7.52065 22.724 8.52065 24 8.52065C22.724 8.52065 21.5 9.52065 20.5 10.5207L17.894 13.4677C17.1384 14.2737 16.2255 14.9161 15.2117 15.3554C14.1979 15.7946 13.1048 16.0212 12 16.0212C10.8952 16.0212 9.80209 15.7946 8.78832 15.3554C7.77454 14.9161 6.86163 14.2737 6.106 13.4677L3.5 10.5207C2.5 9.52065 1.276 8.52065 0 8.52065C1.276 8.52065 2.5 7.52065 3.5 6.52065L6.106 3.57365Z" stroke="black"/>
<path d="M9.5 8.52063C9.5 7.85759 9.76339 7.2217 10.2322 6.75286C10.7011 6.28402 11.337 6.02063 12 6.02063C12.663 6.02063 13.2989 6.28402 13.7678 6.75286C14.2366 7.2217 14.5 7.85759 14.5 8.52063C14.5 9.18367 14.2366 9.81956 13.7678 10.2884C13.2989 10.7572 12.663 11.0206 12 11.0206C11.337 11.0206 10.7011 10.7572 10.2322 10.2884C9.76339 9.81956 9.5 9.18367 9.5 8.52063Z" stroke="black"/>
</svg>
