<svg width="18" height="23" viewBox="0 0 18 23" fill="none" xmlns="http://www.w3.org/2000/svg">
<path d="M10 0.52063V7.52063H17M9 21.5206H1V0.52063H10.5L10.626 0.80263C11.8326 3.51738 14.0033 5.68806 16.718 6.89463L17 7.02063V14.2706" stroke="black"/>
<path d="M11 19.0921C11.318 19.0921 11.7929 19.4062 12.1914 19.7242C12.7057 20.1331 13.1544 20.6216 13.4969 21.1818C13.7536 21.6018 14 22.1109 14 22.5206M14 22.5206C14 22.1109 14.2464 21.6013 14.5031 21.1818C14.846 20.6216 15.2947 20.1331 15.8081 19.7242C16.2071 19.4062 16.6829 19.0921 17 19.0921M14 22.5206V17.3778V17.0921V14.5206" stroke="black" stroke-width="0.8"/>
</svg>
