<svg width="60" height="60" viewBox="0 0 60 60" fill="none" xmlns="http://www.w3.org/2000/svg">
<rect width="60" height="60" fill="#F5F5F5"/>
<g id="Icons">
<path d="M-158 -237C-158 -238.105 -157.105 -239 -156 -239H445C446.105 -239 447 -238.105 447 -237V162C447 163.105 446.105 164 445 164H-156C-157.105 164 -158 163.105 -158 162V-237Z" fill="white"/>
<path d="M-156 -239V-238H445V-239V-240H-156V-239ZM447 -237H446V162H447H448V-237H447ZM445 164V163H-156V164V165H445V164ZM-158 162H-157V-237H-158H-159V162H-158ZM-156 164V163C-156.552 163 -157 162.552 -157 162H-158H-159C-159 163.657 -157.657 165 -156 165V164ZM447 162H446C446 162.552 445.552 163 445 163V164V165C446.657 165 448 163.657 448 162H447ZM445 -239V-238C445.552 -238 446 -237.552 446 -237H447H448C448 -238.657 446.657 -240 445 -240V-239ZM-156 -239V-240C-157.657 -240 -159 -238.657 -159 -237H-158H-157C-157 -237.552 -156.552 -238 -156 -238V-239Z" fill="black" fill-opacity="0.1"/>
<g id="Flashlight button">
<rect width="60" height="60" rx="30" fill="#333333" fill-opacity="0.35"/>
<rect width="60" height="60" rx="30" fill="black" fill-opacity="0.3" style="mix-blend-mode:plus-darker"/>
<path id="Vector" d="M21 32.75V33H28.974C28.0903 36.0193 26.7501 38.8858 25 41.5V42C26.32 42 28.184 41.456 30.089 40.727C35.133 38.796 38.001 33.651 38.004 28.25L38 28H32.414C33.4627 25.1842 33.9998 22.2037 34 19.199V19H25V19.08C24.9999 23.9252 23.6118 28.669 21 32.75Z" fill="white" stroke="white"/>
</g>
</g>
</svg>
