<svg width="24" height="24" viewBox="0 0 24 24" fill="none" xmlns="http://www.w3.org/2000/svg">
<path d="M7 1L1.3 1.3L1 7M17 1L22.7 1.3L23 7M17 23L22.7 22.7L23 17M7 23L1.3 22.7L1 17" stroke="black"/>
<path d="M14.6836 16.8256C14.9003 16.8256 15.224 17.0321 15.4956 17.2411C15.8461 17.5098 16.1519 17.8309 16.3853 18.199C16.5603 18.475 16.7282 18.8096 16.7282 19.0789M16.7282 19.0789C16.7282 18.8096 16.8962 18.4748 17.0711 18.199C17.3048 17.8309 17.6106 17.5098 17.9606 17.2411C18.2325 17.0321 18.5567 16.8256 18.7729 16.8256M16.7282 19.0789V15.699V15.5112V13.8213" stroke="black"/>
<path d="M18.6297 11.2145L18.5796 10.9266L18.6289 11.2143L18.6279 11.2149C18.6273 11.215 18.6262 11.2149 18.6253 11.215C18.6235 11.2154 18.621 11.2156 18.618 11.216C18.6115 11.2171 18.602 11.2186 18.5902 11.2204C18.5664 11.224 18.5315 11.2289 18.4855 11.2347C18.3932 11.2463 18.2551 11.2616 18.0682 11.2771C17.6941 11.308 17.1235 11.3396 16.3283 11.3439L16.3279 11.3442L15.7729 11.3422C15.2593 11.3354 14.868 11.3159 14.5874 11.2958C14.4005 11.2824 14.2625 11.2687 14.1702 11.2582C14.1241 11.2529 14.089 11.2481 14.0653 11.2448C14.0535 11.2432 14.0444 11.242 14.0379 11.241C14.0347 11.2405 14.0318 11.24 14.0299 11.2397C14.0291 11.2396 14.0284 11.2397 14.0278 11.2396L14.0271 11.2394L14.0266 11.2397L14.0263 11.2392L13.8206 11.2061L13.7849 11.0003L13.7846 10.9999L13.7848 10.9991C13.7847 10.9985 13.7843 10.9977 13.7841 10.9968C13.7838 10.995 13.7836 10.9925 13.7832 10.9895C13.7821 10.983 13.7805 10.9735 13.7788 10.9616C13.7753 10.9379 13.7703 10.903 13.7645 10.857C13.7529 10.7648 13.7378 10.627 13.7224 10.4402C13.6916 10.0663 13.6599 9.49565 13.6556 8.70031C13.6512 7.90501 13.6766 7.33396 13.7032 6.95962C13.7165 6.77247 13.73 6.63432 13.7405 6.54195C13.7458 6.49583 13.7501 6.46108 13.7534 6.43731C13.755 6.42551 13.7563 6.4164 13.7572 6.40996C13.7577 6.40673 13.7582 6.40384 13.7585 6.40195C13.7586 6.40109 13.759 6.40018 13.7591 6.39961L13.7588 6.39911L13.7593 6.39883L13.759 6.39833L13.7923 6.19187L13.9984 6.15665L13.9988 6.15636L13.9996 6.15657C14.0002 6.15646 14.001 6.15606 14.0019 6.15591C14.0038 6.15559 14.0065 6.15514 14.0097 6.15463C14.0162 6.1536 14.0253 6.15227 14.0371 6.15053C14.0608 6.14702 14.0956 6.14203 14.1417 6.13627C14.234 6.12473 14.3723 6.10972 14.5593 6.09436C14.9335 6.06364 15.5043 6.03236 16.2995 6.02801C17.0946 6.02366 17.6655 6.04859 18.0399 6.07516C18.2271 6.08845 18.3654 6.10249 18.4578 6.113C18.5039 6.11825 18.5387 6.12259 18.5625 6.12584C18.5743 6.12744 18.5834 6.12872 18.5898 6.12967C18.593 6.13015 18.5959 6.13065 18.5978 6.13094C18.5986 6.13106 18.5993 6.13097 18.5999 6.13106L18.6007 6.13126L18.6011 6.13097L18.6014 6.13147L18.8076 6.16425L18.8428 6.37032L18.5551 6.41958L18.8431 6.37081L18.8432 6.37208C18.8433 6.37258 18.8435 6.37316 18.8436 6.37385C18.8439 6.37572 18.8443 6.3785 18.8449 6.38169C18.8459 6.3881 18.8472 6.39726 18.8489 6.40904C18.8525 6.43277 18.8575 6.46764 18.8632 6.5137C18.8748 6.606 18.8898 6.74418 18.9051 6.93129C18.9358 7.30547 18.9674 7.87656 18.9718 8.67191C18.9761 9.467 18.951 10.0377 18.9243 10.4118C18.911 10.5989 18.8975 10.7372 18.887 10.8295C18.8817 10.8756 18.8769 10.9107 18.8736 10.9344C18.872 10.9462 18.8708 10.9554 18.8698 10.9618C18.8693 10.9649 18.8685 10.9674 18.8683 10.9693C18.8681 10.9701 18.8682 10.9708 18.8681 10.9713L18.8682 10.9726L18.8677 10.9729L18.8349 11.1791L18.6297 11.2145ZM18.3417 10.3704C18.3673 10.0122 18.3923 9.45635 18.388 8.67484C18.3837 7.89331 18.3524 7.33718 18.323 6.97885C18.3131 6.85896 18.3022 6.76135 18.2938 6.68469C18.2169 6.67706 18.1191 6.66677 17.9988 6.65824C17.6403 6.63279 17.0842 6.608 16.3027 6.61227C15.5212 6.61655 14.9652 6.64707 14.6069 6.67649C14.4869 6.68634 14.3892 6.69802 14.3125 6.7065C14.3049 6.78326 14.2943 6.88094 14.2858 7.001C14.2603 7.35948 14.2355 7.9156 14.2398 8.69709C14.2441 9.47861 14.275 10.0346 14.3045 10.3926C14.3144 10.5126 14.3265 10.6101 14.335 10.6867C14.4117 10.6943 14.5094 10.7043 14.6292 10.7129C14.898 10.7322 15.278 10.7513 15.7809 10.758L16.3251 10.7597C17.1065 10.7554 17.6625 10.7246 18.0206 10.695C18.1411 10.685 18.239 10.6737 18.3158 10.6652C18.3234 10.5884 18.3332 10.4906 18.3417 10.3704Z" fill="black"/>
<path d="M15.8197 9.33221C15.8197 9.33221 16.0109 9.36405 16.4572 9.36425C16.9033 9.36422 17.0948 9.33222 17.0948 9.33222C17.0948 9.33222 17.1266 9.14099 17.1266 8.69483C17.1266 8.24867 17.0948 8.05706 17.0948 8.05706C17.0948 8.05706 16.9034 8.02537 16.4572 8.02539C16.011 8.02542 15.8194 8.0572 15.8194 8.0572C15.8194 8.0572 15.7877 8.24865 15.7878 8.69481C15.7878 9.14098 15.8197 9.33221 15.8197 9.33221Z" stroke="black"/>
<path d="M10.0008 11.2145L9.95071 10.9266L9.99997 11.2143L9.99899 11.2149C9.99839 11.215 9.99733 11.2149 9.99644 11.215C9.99459 11.2154 9.99213 11.2156 9.98909 11.216C9.98263 11.2171 9.97314 11.2186 9.96125 11.2204C9.93749 11.224 9.90255 11.2289 9.85659 11.2347C9.7643 11.2463 9.62616 11.2616 9.43929 11.2771C9.06518 11.308 8.49456 11.3396 7.69944 11.3439L7.69895 11.3442L7.144 11.3422C6.63035 11.3354 6.2391 11.3159 5.95846 11.2958C5.77155 11.2824 5.63361 11.2687 5.54129 11.2582C5.49515 11.2529 5.46013 11.2481 5.43636 11.2448C5.42457 11.2432 5.41545 11.242 5.409 11.241C5.40578 11.2405 5.40289 11.24 5.401 11.2397C5.4002 11.2396 5.39949 11.2397 5.39894 11.2396L5.39816 11.2394L5.39767 11.2397L5.39738 11.2392L5.1917 11.2061L5.15598 11.0003L5.1557 10.9999L5.1559 10.9991C5.1558 10.9985 5.15539 10.9977 5.15524 10.9968C5.15494 10.995 5.15474 10.9925 5.15425 10.9895C5.15322 10.983 5.15163 10.9735 5.14987 10.9616C5.14635 10.9379 5.14138 10.903 5.1356 10.857C5.12403 10.7648 5.10889 10.627 5.09349 10.4402C5.06268 10.0663 5.031 9.49565 5.02665 8.70031C5.02229 7.90501 5.04772 7.33396 5.07429 6.95962C5.08758 6.77247 5.10113 6.63432 5.11164 6.54195C5.11688 6.49583 5.12123 6.46108 5.12447 6.43731C5.12608 6.42551 5.12735 6.4164 5.12831 6.40996C5.12879 6.40673 5.12928 6.40384 5.12957 6.40195C5.12971 6.40109 5.1301 6.40018 5.13019 6.39961L5.1299 6.39911L5.13039 6.39883L5.13011 6.39833L5.16338 6.19187L5.36945 6.15665L5.36994 6.15636L5.37072 6.15657C5.37132 6.15646 5.37207 6.15606 5.37298 6.15591C5.37486 6.15559 5.37762 6.15514 5.38082 6.15463C5.38726 6.1536 5.39641 6.15227 5.40817 6.15053C5.43193 6.14702 5.46672 6.14203 5.51283 6.13627C5.60514 6.12473 5.74337 6.10972 5.93042 6.09436C6.30461 6.06364 6.87538 6.03236 7.67055 6.02801C8.46569 6.02366 9.0366 6.04859 9.41096 6.07516C9.59815 6.08845 9.73654 6.10249 9.82891 6.113C9.87504 6.11825 9.90978 6.12259 9.93356 6.12584C9.94535 6.12744 9.95446 6.12872 9.96091 6.12967C9.96414 6.13015 9.96703 6.13065 9.96892 6.13094C9.96972 6.13106 9.97042 6.13097 9.97097 6.13106L9.97175 6.13126L9.97224 6.13097L9.97253 6.13147L10.1787 6.16425L10.2139 6.37032L9.92619 6.41958L10.2142 6.37081L10.2143 6.37208C10.2144 6.37258 10.2146 6.37316 10.2147 6.37385C10.215 6.37572 10.2154 6.3785 10.216 6.38169C10.217 6.3881 10.2183 6.39726 10.22 6.40904C10.2235 6.43277 10.2286 6.46764 10.2343 6.5137C10.2458 6.606 10.2609 6.74418 10.2762 6.93129C10.3069 7.30547 10.3385 7.87656 10.3429 8.67191C10.3472 9.467 10.3221 10.0377 10.2954 10.4118C10.2821 10.5989 10.2686 10.7372 10.2581 10.8295C10.2528 10.8756 10.248 10.9107 10.2447 10.9344C10.2431 10.9462 10.2419 10.9554 10.2409 10.9618C10.2404 10.9649 10.2396 10.9674 10.2394 10.9693C10.2392 10.9701 10.2393 10.9708 10.2392 10.9713L10.2393 10.9726L10.2388 10.9729L10.206 11.1791L10.0008 11.2145ZM9.71283 10.3704C9.7384 10.0122 9.76336 9.45635 9.75908 8.67484C9.7548 7.89331 9.72351 7.33718 9.69409 6.97885C9.68424 6.85896 9.67333 6.76135 9.66486 6.68469C9.58803 6.67706 9.49017 6.66677 9.36987 6.65824C9.01137 6.63279 8.4553 6.608 7.67377 6.61227C6.89226 6.61655 6.33631 6.64707 5.97798 6.67649C5.85798 6.68634 5.76033 6.69802 5.68362 6.7065C5.676 6.78326 5.6654 6.88094 5.65687 7.001C5.63143 7.35948 5.60664 7.9156 5.61091 8.69709C5.61519 9.47861 5.64612 10.0346 5.67562 10.3926C5.68551 10.5126 5.69762 10.6101 5.70612 10.6867C5.78277 10.6943 5.88052 10.7043 6.00033 10.7129C6.26912 10.7322 6.64905 10.7513 7.15203 10.758L7.69623 10.7597C8.47764 10.7554 9.0336 10.7246 9.39173 10.695C9.51218 10.685 9.61009 10.6737 9.68687 10.6652C9.69453 10.5884 9.70426 10.4906 9.71283 10.3704Z" fill="black"/>
<path d="M7.19076 9.2226C7.19076 9.2226 7.38198 9.25443 7.82828 9.25463C8.27444 9.2546 8.46591 9.2226 8.46591 9.2226C8.46591 9.2226 8.49774 9.03138 8.49771 8.58521C8.49769 8.13905 8.46591 7.94745 8.46591 7.94745C8.46591 7.94745 8.27446 7.91575 7.82829 7.91578C7.38213 7.9158 7.19053 7.94758 7.19053 7.94758C7.19053 7.94758 7.15883 8.13903 7.15886 8.5852C7.15888 9.03136 7.19076 9.2226 7.19076 9.2226Z" stroke="black"/>
<path d="M10.0008 18.8091L9.95071 18.5212L9.99997 18.8089L9.99899 18.8095C9.99839 18.8096 9.99733 18.8095 9.99644 18.8097C9.99459 18.81 9.99213 18.8102 9.98909 18.8106C9.98263 18.8117 9.97314 18.8133 9.96125 18.815C9.93749 18.8186 9.90255 18.8235 9.85659 18.8293C9.7643 18.8409 9.62616 18.8562 9.43929 18.8717C9.06518 18.9026 8.49456 18.9342 7.69944 18.9385L7.69895 18.9388L7.144 18.9368C6.63035 18.93 6.2391 18.9105 5.95846 18.8904C5.77155 18.877 5.63361 18.8633 5.54129 18.8528C5.49515 18.8475 5.46013 18.8427 5.43636 18.8394C5.42457 18.8378 5.41545 18.8366 5.409 18.8356C5.40578 18.8351 5.40289 18.8346 5.401 18.8343C5.4002 18.8342 5.39949 18.8343 5.39894 18.8342L5.39816 18.834L5.39767 18.8343L5.39738 18.8338L5.1917 18.8007L5.15598 18.595L5.1557 18.5945L5.1559 18.5937C5.1558 18.5931 5.15539 18.5923 5.15524 18.5914C5.15494 18.5896 5.15474 18.5871 5.15425 18.5841C5.15322 18.5776 5.15163 18.5681 5.14987 18.5562C5.14635 18.5325 5.14138 18.4976 5.1356 18.4516C5.12403 18.3594 5.10889 18.2216 5.09349 18.0348C5.06268 17.6609 5.031 17.0903 5.02665 16.2949C5.02229 15.4996 5.04772 14.9286 5.07429 14.5542C5.08758 14.3671 5.10113 14.2289 5.11164 14.1366C5.11688 14.0904 5.12123 14.0557 5.12447 14.0319C5.12608 14.0201 5.12735 14.011 5.12831 14.0046C5.12879 14.0013 5.12928 13.9984 5.12957 13.9966C5.12971 13.9957 5.1301 13.9948 5.13019 13.9942L5.1299 13.9937L5.13039 13.9934L5.13011 13.9929L5.16338 13.7865L5.36945 13.7513L5.36994 13.751L5.37072 13.7512C5.37132 13.7511 5.37207 13.7507 5.37298 13.7505C5.37486 13.7502 5.37762 13.7497 5.38082 13.7492C5.38726 13.7482 5.39641 13.7469 5.40817 13.7451C5.43193 13.7416 5.46672 13.7366 5.51283 13.7309C5.60514 13.7193 5.74337 13.7043 5.93042 13.689C6.30461 13.6582 6.87538 13.627 7.67055 13.6226C8.46569 13.6183 9.0366 13.6432 9.41096 13.6698C9.59815 13.6831 9.73654 13.6971 9.82891 13.7076C9.87504 13.7129 9.90978 13.7172 9.93356 13.7204C9.94535 13.722 9.95446 13.7233 9.96091 13.7243C9.96414 13.7248 9.96703 13.7252 9.96892 13.7255C9.96972 13.7257 9.97042 13.7256 9.97097 13.7257L9.97175 13.7259L9.97224 13.7256L9.97253 13.7261L10.1787 13.7589L10.2139 13.9649L9.92619 14.0142L10.2142 13.9654L10.2143 13.9667C10.2144 13.9672 10.2146 13.9678 10.2147 13.9685C10.215 13.9703 10.2154 13.9731 10.216 13.9763C10.217 13.9827 10.2183 13.9919 10.22 14.0036C10.2235 14.0274 10.2286 14.0622 10.2343 14.1083C10.2458 14.2006 10.2609 14.3388 10.2762 14.5259C10.3069 14.9001 10.3385 15.4712 10.3429 16.2665C10.3472 17.0616 10.3221 17.6323 10.2954 18.0064C10.2821 18.1935 10.2686 18.3318 10.2581 18.4241C10.2528 18.4702 10.248 18.5053 10.2447 18.529C10.2431 18.5408 10.2419 18.55 10.2409 18.5564C10.2404 18.5595 10.2396 18.562 10.2394 18.5639C10.2392 18.5647 10.2393 18.5654 10.2392 18.566L10.2393 18.5672L10.2388 18.5675L10.206 18.7737L10.0008 18.8091ZM9.71283 17.9651C9.7384 17.6068 9.76336 17.0509 9.75908 16.2694C9.7548 15.4879 9.72351 14.9318 9.69409 14.5735C9.68424 14.4536 9.67333 14.356 9.66486 14.2793C9.58803 14.2717 9.49017 14.2614 9.36987 14.2528C9.01137 14.2274 8.4553 14.2026 7.67377 14.2069C6.89226 14.2112 6.33631 14.2417 5.97798 14.2711C5.85798 14.2809 5.76033 14.2926 5.68362 14.3011C5.676 14.3779 5.6654 14.4755 5.65687 14.5956C5.63143 14.9541 5.60664 15.5102 5.61091 16.2917C5.61519 17.0732 5.64612 17.6292 5.67562 17.9872C5.68551 18.1072 5.69762 18.2047 5.70612 18.2813C5.78277 18.2889 5.88052 18.2989 6.00033 18.3075C6.26912 18.3268 6.64905 18.346 7.15203 18.3526L7.69623 18.3543C8.47764 18.35 9.0336 18.3192 9.39173 18.2896C9.51218 18.2796 9.61009 18.2683 9.68687 18.2598C9.69453 18.183 9.70426 18.0852 9.71283 17.9651Z" fill="black"/>
<path d="M7.19076 16.8172C7.19076 16.8172 7.38198 16.849 7.82828 16.8492C8.27444 16.8492 8.46591 16.8172 8.46591 16.8172C8.46591 16.8172 8.49774 16.626 8.49771 16.1798C8.49769 15.7337 8.46591 15.5421 8.46591 15.5421C8.46591 15.5421 8.27446 15.5104 7.82829 15.5104C7.38213 15.5104 7.19053 15.5422 7.19053 15.5422C7.19053 15.5422 7.15883 15.7336 7.15886 16.1798C7.15888 16.626 7.19076 16.8172 7.19076 16.8172Z" stroke="black"/>
</svg>
