<svg width="61" height="61" viewBox="0 0 61 61" fill="none" xmlns="http://www.w3.org/2000/svg">
<path d="M18 20.375H31.0909C33.4055 20.375 35.6253 21.3232 37.262 23.011C38.8987 24.6989 39.8182 26.9881 39.8182 29.375M18 20.375C18.4473 20.375 19.08 20.0971 19.5382 19.8091C20.1474 19.4192 20.6857 18.9223 21.1287 18.341C21.4756 17.891 21.8182 17.3578 21.8182 17M18 20.375C18.4473 20.375 19.08 20.6529 19.5382 20.9409C20.1473 21.3309 20.6855 21.8278 21.1287 22.409C21.4756 22.859 21.8182 23.3923 21.8182 23.75M42 40.625H28.9091C26.5945 40.625 24.3747 39.6768 22.738 37.989C21.1013 36.3011 20.1818 34.012 20.1818 31.625M42 40.625C41.5527 40.625 40.92 40.9029 40.4618 41.1909C39.8527 41.5809 39.3144 42.0777 38.8713 42.659C38.5244 43.109 38.1818 43.6423 38.1818 44M42 40.625C41.5527 40.625 40.92 40.3471 40.4618 40.0591C39.8527 39.6691 39.3144 39.1723 38.8713 38.591C38.5244 38.141 38.1818 37.6078 38.1818 37.25" stroke="black" stroke-width="1.7"/>
<circle cx="30.5" cy="30.5" r="29.5" stroke="black" stroke-width="2"/>
</svg>
