<svg width="26" height="20" viewBox="0 0 26 20" fill="none" xmlns="http://www.w3.org/2000/svg">
<path d="M18.5 2.1299V2.7002M18.3904 17.6589L18.5 17.6699M1.5 1.3999V7.3999C2.16304 7.3999 2.79893 7.66329 3.26777 8.13214C3.73661 8.60098 4 9.23686 4 9.8999C4 10.5629 3.73661 11.1988 3.26777 11.6677C2.79893 12.1365 2.16304 12.3999 1.5 12.3999V18.3999H2L5.04 17.9659C10.3199 17.2115 15.6801 17.2115 20.96 17.9659L24 18.3999H24.5V12.3999C23.837 12.3999 23.2011 12.1365 22.7322 11.6677C22.2634 11.1988 22 10.5629 22 9.8999C22 9.23686 22.2634 8.60098 22.7322 8.13214C23.2011 7.66329 23.837 7.3999 24.5 7.3999V1.3999H24L20.96 1.8339C15.6801 2.58818 10.3199 2.58818 5.04 1.8339L2 1.3999H1.5Z" stroke="current" stroke-width="2"/>
</svg>
