<svg width="174" height="156" viewBox="0 0 174 156" fill="none" xmlns="http://www.w3.org/2000/svg">
<path d="M158.499 141.5C158.499 141.5 165.079 38.9831 119.39 50.9313C101.867 55.5138 59.6967 65.081 71.42 89.9607C83.1433 114.841 106.962 116.091 101.102 81.9547C95.2409 47.8181 68.755 -18.2965 37.6644 6.39767C20.566 19.9783 4.50687 52.1236 0.998825 47.4286" stroke="black"/>
<path d="M144.725 141.39C146.146 141.231 148.413 142.269 150.34 143.36C152.825 144.763 155.053 146.521 156.839 148.623C158.177 150.2 159.51 152.143 159.695 153.805C159.51 152.143 160.381 149.952 161.339 148.121C162.618 145.677 164.404 143.47 166.515 141.554C168.155 140.065 170.14 138.552 171.559 138.394" stroke="black"/>
</svg>
