<svg width="197" height="154" viewBox="0 0 197 154" fill="none" xmlns="http://www.w3.org/2000/svg">
<path d="M14.8906 142C14.8906 142 30.3109 38.9831 76 50.9313C93.5233 55.5138 137.193 65.081 125.469 89.9607C113.746 114.841 89.927 116.091 95.7877 81.9547C101.648 47.8181 128.134 -18.2965 159.225 6.39767C176.323 19.9783 192.383 52.1236 195.891 47.4286" stroke="black"/>
<path d="M28.8875 139.314C27.4767 139.086 25.1605 140.01 23.1825 141.006C20.6311 142.284 18.3191 143.931 16.4325 145.942C15.0181 147.451 13.5912 149.326 13.3239 150.977C13.5912 149.326 12.829 147.095 11.9624 145.219C10.8048 142.714 9.13033 140.422 7.11636 138.405C5.55142 136.836 3.64318 135.228 2.23438 135" stroke="black"/>
</svg>
