<svg width="104" height="36" viewBox="0 0 104 36" fill="none" xmlns="http://www.w3.org/2000/svg">
<circle cx="15.5" cy="15.5" r="15.5" fill="black"/>
<path d="M11.8066 10.7052C17.1757 14.2555 20.4807 15.4803 26.7488 16.6966M8.51453 8.69033C12.5512 16.0772 13.8917 19.8737 13.9933 25.7895" stroke="white"/>
<path d="M47.9961 15.2695C48.7253 15.2695 49.3503 15.2142 49.8711 15.1035C50.3919 14.9928 50.8184 14.8268 51.1504 14.6055C51.4824 14.3776 51.7266 14.0977 51.8828 13.7656C52.0391 13.4271 52.1172 13.0332 52.1172 12.584C52.1172 12.0371 52.0033 11.6074 51.7754 11.2949C51.554 10.9824 51.2448 10.748 50.8477 10.5918C50.457 10.429 49.998 10.3281 49.4707 10.2891C48.9434 10.25 48.377 10.2305 47.7715 10.2305H46.3164V15.2695H47.9961ZM50.584 16.1582C51.2936 16.2363 51.9219 16.3665 52.4688 16.5488C53.0221 16.7311 53.4844 16.9818 53.8555 17.3008C54.2331 17.6198 54.5163 18.0137 54.7051 18.4824C54.9004 18.9512 54.998 19.5046 54.998 20.1426V24H52.2148V19.9473C52.2148 19.2897 52.1074 18.7689 51.8926 18.3848C51.6842 17.9941 51.3848 17.7012 50.9941 17.5059C50.61 17.304 50.1445 17.1738 49.5977 17.1152C49.0573 17.0566 48.4551 17.0273 47.791 17.0273H46.3164V24H43.5137V8.35547H47.8984C49.1615 8.35547 50.2389 8.43359 51.1309 8.58984C52.0228 8.74609 52.752 8.98698 53.3184 9.3125C53.8848 9.63151 54.2982 10.0384 54.5586 10.5332C54.819 11.028 54.9492 11.6139 54.9492 12.291C54.9492 12.9681 54.8385 13.5475 54.6172 14.0293C54.4023 14.5046 54.0996 14.8984 53.709 15.2109C53.3249 15.5169 52.8659 15.748 52.332 15.9043C51.7982 16.054 51.2155 16.1387 50.584 16.1582ZM69.1934 8.35547L74.3691 24H71.5371L70.3848 20.377H64.5742L63.4219 24H60.5898L65.7266 8.35547H69.1934ZM64.9453 19.0195H70.0137L67.5137 11.1777L64.9453 19.0195ZM81.543 22.6035V9.79102H79.6875V8.35547H86.1621V9.79102H84.2871V22.6035H86.1621V24H79.6875V22.6035H81.543ZM102.408 10.2598L94.8398 22.125H102.428V24H91.8027V21.9688L99.3809 10.2305H91.8027V8.35547H102.408V10.2598Z" fill="#202715"/>
</svg>
